
<!-- Generator: visioncortex VTracer 0.6.4 -->
<svg version="1.1" xmlns="http://www.w3.org/2000/svg" viewBox="0 0 500 500" preserveAspectRatio="xMidYMid meet">
<path d="M0 0 C1.007 0.491 2.014 0.982 3.051 1.488 C8.309 4.072 13.454 6.774 18.5 9.75 C18.5 10.41 18.5 11.07 18.5 11.75 C19.077 11.874 19.655 11.998 20.25 12.125 C22.5 12.75 22.5 12.75 24.312 13.75 C26.858 14.914 28.967 15.155 31.75 15.375 C32.642 15.45 33.534 15.525 34.453 15.602 C35.466 15.675 35.466 15.675 36.5 15.75 C36.83 14.43 37.16 13.11 37.5 11.75 C38.406 11.603 39.312 11.456 40.246 11.305 C47.48 9.973 52.97 8.483 58.828 3.957 C60.5 2.75 60.5 2.75 62.5 2.75 C62.5 2.09 62.5 1.43 62.5 0.75 C63.16 0.75 63.82 0.75 64.5 0.75 C64.5 0.09 64.5 -0.57 64.5 -1.25 C65.16 -1.25 65.82 -1.25 66.5 -1.25 C66.5 -1.91 66.5 -2.57 66.5 -3.25 C67.49 -3.58 68.48 -3.91 69.5 -4.25 C82.015 7.04 85.365 28.854 86.5 44.75 C86.649 48.356 86.69 51.954 86.688 55.562 C86.688 56.517 86.689 57.472 86.689 58.456 C86.635 65.721 86.005 72.626 84.5 79.75 C83.84 79.75 83.18 79.75 82.5 79.75 C82.5 80.41 82.5 81.07 82.5 81.75 C81.84 81.75 81.18 81.75 80.5 81.75 C80.5 82.41 80.5 83.07 80.5 83.75 C79.84 83.75 79.18 83.75 78.5 83.75 C78.5 84.41 78.5 85.07 78.5 85.75 C76.27 87.914 76.27 87.914 73.312 90.375 C72.35 91.192 71.387 92.01 70.395 92.852 C67.354 94.846 66.042 95.203 62.5 94.75 C59.574 86.557 57.542 78.196 55.5 69.75 C55.619 70.437 55.737 71.124 55.859 71.832 C55.988 72.733 56.117 73.634 56.25 74.562 C56.459 75.902 56.459 75.902 56.672 77.27 C56.5 79.75 56.5 79.75 54.719 81.594 C51.678 83.178 49.75 82.562 46.5 81.75 C47.16 82.41 47.82 83.07 48.5 83.75 C48.275 86.078 47.67 87.496 46.375 89.438 C42.621 92.065 38.46 91.872 34.062 91.312 C33.217 91.127 32.371 90.941 31.5 90.75 C31.5 90.09 31.5 89.43 31.5 88.75 C29.85 88.09 28.2 87.43 26.5 86.75 C26.995 87.204 27.49 87.657 28 88.125 C29.5 89.75 29.5 89.75 29.5 91.75 C30.408 92.039 31.315 92.327 32.25 92.625 C34.822 93.515 37.113 94.465 39.5 95.75 C39.5 97.07 39.5 98.39 39.5 99.75 C38.84 99.75 38.18 99.75 37.5 99.75 C37.5 100.41 37.5 101.07 37.5 101.75 C36.84 101.75 36.18 101.75 35.5 101.75 C35.5 102.41 35.5 103.07 35.5 103.75 C32.24 105.688 29.771 106.021 26 106 C25.062 106.005 24.123 106.01 23.156 106.016 C20.46 105.746 18.811 105.123 16.5 103.75 C16.5 103.09 16.5 102.43 16.5 101.75 C15.778 101.502 15.056 101.255 14.312 101 C11.253 99.64 9.033 97.921 6.5 95.75 C6.83 97.07 7.16 98.39 7.5 99.75 C8.16 99.75 8.82 99.75 9.5 99.75 C9.5 100.41 9.5 101.07 9.5 101.75 C10.16 101.75 10.82 101.75 11.5 101.75 C13.21 103.372 14.873 105.044 16.5 106.75 C17.098 107.286 17.696 107.822 18.312 108.375 C19.5 109.75 19.5 109.75 19.5 112.75 C12.487 115.535 6.338 116.787 -1.125 115.188 C-4.804 112.961 -7.589 109.888 -10.5 106.75 C-10.055 107.402 -9.611 108.055 -9.152 108.727 C-4.532 115.863 -4.532 115.863 -4.375 120.25 C-5.734 123.271 -6.478 123.579 -9.5 124.75 C-14.432 125.44 -18.308 125.465 -22.625 122.875 C-24.5 120.75 -24.5 120.75 -24.5 118.75 C-25.16 118.75 -25.82 118.75 -26.5 118.75 C-26.5 118.09 -26.5 117.43 -26.5 116.75 C-27.16 116.75 -27.82 116.75 -28.5 116.75 C-30.726 113.41 -30.713 112.15 -30.812 108.25 C-30.993 103.802 -30.993 103.802 -33.938 100.625 C-34.783 100.336 -35.629 100.048 -36.5 99.75 C-37.16 99.42 -37.82 99.09 -38.5 98.75 C-38.477 98.147 -38.454 97.543 -38.43 96.922 C-38.412 96.123 -38.394 95.323 -38.375 94.5 C-38.352 93.711 -38.329 92.922 -38.305 92.109 C-38.523 89.472 -39.053 87.958 -40.5 85.75 C-43.533 83.983 -43.533 83.983 -46.5 82.75 C-46.479 81.863 -46.459 80.976 -46.438 80.062 C-46.408 76.442 -46.408 76.442 -47.5 71.75 C-53.44 70.76 -53.44 70.76 -59.5 69.75 C-59.5 70.41 -59.5 71.07 -59.5 71.75 C-60.16 71.75 -60.82 71.75 -61.5 71.75 C-61.5 72.41 -61.5 73.07 -61.5 73.75 C-62.16 73.75 -62.82 73.75 -63.5 73.75 C-63.5 74.41 -63.5 75.07 -63.5 75.75 C-64.82 76.08 -66.14 76.41 -67.5 76.75 C-67.933 75.966 -68.366 75.183 -68.812 74.375 C-70.392 71.533 -70.392 71.533 -73.5 69.75 C-77.063 69.683 -79.487 69.849 -82.219 72.277 C-86.075 76.748 -88.653 80.533 -89.625 86.438 C-89.793 87.431 -89.96 88.425 -90.133 89.449 C-90.254 90.208 -90.375 90.968 -90.5 91.75 C-95.634 90.36 -100.537 88.665 -105.5 86.75 C-106.16 89.39 -106.82 92.03 -107.5 94.75 C-114.25 93.875 -114.25 93.875 -116.5 92.75 C-116.5 92.09 -116.5 91.43 -116.5 90.75 C-117.083 90.635 -117.665 90.521 -118.266 90.402 C-120.665 89.702 -122.229 88.768 -124.25 87.312 C-124.864 86.881 -125.477 86.449 -126.109 86.004 C-126.798 85.383 -126.798 85.383 -127.5 84.75 C-127.5 84.09 -127.5 83.43 -127.5 82.75 C-128.119 82.482 -128.738 82.214 -129.375 81.938 C-131.5 80.75 -131.5 80.75 -133.5 77.75 C-140.265 52.486 -133.831 25.962 -123.5 2.75 C-122.84 2.75 -122.18 2.75 -121.5 2.75 C-121.17 1.43 -120.84 0.11 -120.5 -1.25 C-119.881 -0.67 -119.881 -0.67 -119.25 -0.078 C-107.734 10.307 -95.354 11.057 -80.5 11.75 C-80.5 12.74 -80.5 13.73 -80.5 14.75 C-79.654 14.401 -78.809 14.051 -77.938 13.691 C-71.728 11.201 -66.196 9.144 -59.5 8.75 C-59.665 9.389 -59.83 10.029 -60 10.688 C-60.539 12.558 -60.539 12.558 -60.5 13.75 C-60.162 13.124 -59.825 12.497 -59.477 11.852 C-58.808 10.626 -58.808 10.626 -58.125 9.375 C-57.464 8.157 -57.464 8.157 -56.789 6.914 C-55.175 4.204 -54.226 2.946 -51.137 2.112 C-50.163 1.932 -49.19 1.752 -48.188 1.566 C-47.111 1.361 -46.035 1.155 -44.926 0.943 C-43.795 0.735 -42.665 0.527 -41.5 0.312 C-32.217 -1.404 -32.217 -1.404 -23.125 -3.91 C-13.892 -6.721 -8.334 -4.194 0 0 Z M-63.5 17.75 C-63.83 19.07 -64.16 20.39 -64.5 21.75 C-63.84 21.42 -63.18 21.09 -62.5 20.75 C-62.83 19.76 -63.16 18.77 -63.5 17.75 Z M-65.5 21.75 C-64.5 23.75 -64.5 23.75 -64.5 23.75 Z M-30.625 21.5 C-37.38 23.145 -40.583 26.181 -44.793 31.57 C-46.5 33.75 -46.5 33.75 -48.5 34.75 C-48.17 35.41 -47.84 36.07 -47.5 36.75 C-46.201 35.675 -44.911 34.59 -43.625 33.5 C-42.546 32.595 -42.546 32.595 -41.445 31.672 C-39.395 29.897 -39.395 29.897 -38.609 27.582 C-37.5 25.75 -37.5 25.75 -34.883 24.965 C-25.769 24.189 -18.029 25.441 -10.641 31.199 C-9.25 32.562 -9.25 32.562 -7.5 34.75 C-9.295 30.71 -11.291 26.794 -15.434 24.836 C-16.811 24.336 -18.199 23.863 -19.598 23.426 C-24.841 21.095 -24.841 21.095 -30.625 21.5 Z M-66.5 23.75 C-65.5 25.75 -65.5 25.75 -65.5 25.75 Z M-68.5 27.75 C-69.16 29.4 -69.82 31.05 -70.5 32.75 C-69.51 33.74 -68.52 34.73 -67.5 35.75 C-67.5 33.11 -67.5 30.47 -67.5 27.75 C-67.83 27.75 -68.16 27.75 -68.5 27.75 Z M-7.5 34.75 C-6.84 36.07 -6.18 37.39 -5.5 38.75 C-4.51 38.75 -3.52 38.75 -2.5 38.75 C-4.15 37.43 -5.8 36.11 -7.5 34.75 Z M-67.5 35.75 C-67.5 36.41 -67.5 37.07 -67.5 37.75 C-62.617 39.753 -57.732 40.635 -52.5 39.75 C-50.257 38.316 -50.257 38.316 -48.5 36.75 C-49.453 36.762 -50.405 36.773 -51.387 36.785 C-52.641 36.794 -53.895 36.803 -55.188 36.812 C-56.429 36.824 -57.67 36.836 -58.949 36.848 C-61.962 36.765 -64.583 36.458 -67.5 35.75 Z M-1.5 40.75 C-0.51 42.235 -0.51 42.235 0.5 43.75 C1.16 43.42 1.82 43.09 2.5 42.75 C1.18 42.09 -0.14 41.43 -1.5 40.75 Z M2.5 43.75 C5.882 47.555 9.005 49.74 13.633 51.855 C15.5 52.75 15.5 52.75 18.5 54.75 C18.5 54.09 18.5 53.43 18.5 52.75 C19.49 52.42 20.48 52.09 21.5 51.75 C19.798 51.162 19.798 51.162 18.062 50.562 C13.91 49.023 10.19 46.987 6.383 44.738 C4.559 43.595 4.559 43.595 2.5 43.75 Z M20.5 56.75 C21.5 58.75 21.5 58.75 21.5 58.75 Z M22.5 58.75 C23.5 60.75 23.5 60.75 23.5 60.75 Z M52.5 59.75 C53.5 62.75 53.5 62.75 53.5 62.75 Z M23.5 60.75 C24.16 61.41 24.82 62.07 25.5 62.75 C25.5 62.09 25.5 61.43 25.5 60.75 C24.84 60.75 24.18 60.75 23.5 60.75 Z M25.5 62.75 C26.16 63.41 26.82 64.07 27.5 64.75 C27.5 64.09 27.5 63.43 27.5 62.75 C26.84 62.75 26.18 62.75 25.5 62.75 Z M-100.5 64.75 C-99.5 67.75 -99.5 67.75 -99.5 67.75 Z M-102.5 70.75 C-101.5 73.75 -101.5 73.75 -101.5 73.75 Z M35.5 71.75 C36.5 73.75 36.5 73.75 36.5 73.75 Z M37.5 73.75 C38.5 75.75 38.5 75.75 38.5 75.75 Z M-104.5 77.75 C-103.5 81.75 -103.5 81.75 -103.5 81.75 Z M20.5 80.75 C20.5 81.41 20.5 82.07 20.5 82.75 C21.16 82.75 21.82 82.75 22.5 82.75 C22.5 83.41 22.5 84.07 22.5 84.75 C23.16 84.42 23.82 84.09 24.5 83.75 C23.521 82.729 22.52 81.729 21.5 80.75 C21.17 80.75 20.84 80.75 20.5 80.75 Z M24.5 84.75 C24.5 85.41 24.5 86.07 24.5 86.75 C25.16 86.42 25.82 86.09 26.5 85.75 C25.84 85.42 25.18 85.09 24.5 84.75 Z " fill="#06BE65" transform="translate(274.5,150.25)"/>
<path d="M0 0 C1.51 0.737 1.51 0.737 3.051 1.488 C8.309 4.072 13.454 6.774 18.5 9.75 C18.5 10.41 18.5 11.07 18.5 11.75 C19.077 11.874 19.655 11.998 20.25 12.125 C22.5 12.75 22.5 12.75 24.312 13.75 C26.858 14.914 28.967 15.155 31.75 15.375 C32.642 15.45 33.534 15.525 34.453 15.602 C35.129 15.651 35.804 15.7 36.5 15.75 C36.83 14.43 37.16 13.11 37.5 11.75 C38.406 11.603 39.312 11.456 40.246 11.305 C47.48 9.973 52.97 8.483 58.828 3.957 C60.5 2.75 60.5 2.75 62.5 2.75 C62.5 2.09 62.5 1.43 62.5 0.75 C63.16 0.75 63.82 0.75 64.5 0.75 C64.5 0.09 64.5 -0.57 64.5 -1.25 C65.16 -1.25 65.82 -1.25 66.5 -1.25 C66.5 -1.91 66.5 -2.57 66.5 -3.25 C67.49 -3.58 68.48 -3.91 69.5 -4.25 C82.015 7.04 85.365 28.854 86.5 44.75 C86.649 48.356 86.69 51.954 86.688 55.562 C86.688 56.517 86.689 57.472 86.689 58.456 C86.635 65.721 86.005 72.626 84.5 79.75 C83.84 79.75 83.18 79.75 82.5 79.75 C82.5 80.41 82.5 81.07 82.5 81.75 C81.84 81.75 81.18 81.75 80.5 81.75 C80.5 82.41 80.5 83.07 80.5 83.75 C79.84 83.75 79.18 83.75 78.5 83.75 C78.5 84.41 78.5 85.07 78.5 85.75 C76.27 87.914 76.27 87.914 73.312 90.375 C72.35 91.192 71.387 92.01 70.395 92.852 C67.354 94.846 66.042 95.203 62.5 94.75 C59.574 86.557 57.542 78.196 55.5 69.75 C55.619 70.437 55.737 71.124 55.859 71.832 C55.988 72.733 56.117 73.634 56.25 74.562 C56.459 75.902 56.459 75.902 56.672 77.27 C56.5 79.75 56.5 79.75 54.699 81.574 C52.5 82.75 52.5 82.75 49.562 82.75 C46.515 81.755 45.158 80.771 43.059 78.41 C40.177 75.341 36.889 72.686 33.707 69.934 C31.643 67.892 30.712 66.328 29.5 63.75 C27.45 62.945 27.45 62.945 25.5 62.75 C25.5 62.09 25.5 61.43 25.5 60.75 C24.84 60.75 24.18 60.75 23.5 60.75 C22.84 59.1 22.18 57.45 21.5 55.75 C20.84 55.75 20.18 55.75 19.5 55.75 C19.5 55.09 19.5 54.43 19.5 53.75 C20.16 53.75 20.82 53.75 21.5 53.75 C21.5 53.09 21.5 52.43 21.5 51.75 C20.825 51.653 20.149 51.557 19.453 51.457 C15.803 50.583 12.594 49.092 9.25 47.438 C8.613 47.142 7.976 46.846 7.32 46.541 C2.672 44.252 2.672 44.252 1.75 41.566 C1.668 40.967 1.585 40.368 1.5 39.75 C0.592 39.502 -0.315 39.255 -1.25 39 C-5.433 37.391 -6.21 35.411 -8.363 31.648 C-10.995 27.253 -14.965 26.07 -19.598 24.496 C-21.5 23.75 -21.5 23.75 -24.5 21.75 C-30.463 21.981 -35.746 23.217 -40.285 27.184 C-41.841 28.967 -43.348 30.794 -44.793 32.668 C-45.356 33.355 -45.92 34.042 -46.5 34.75 C-47.16 34.75 -47.82 34.75 -48.5 34.75 C-48.5 35.41 -48.5 36.07 -48.5 36.75 C-54.818 38.381 -61.59 38.8 -67.5 35.75 C-68.006 29.677 -66.542 25.978 -63.5 20.75 C-62.84 20.75 -62.18 20.75 -61.5 20.75 C-61.438 19.781 -61.376 18.811 -61.312 17.812 C-60.528 12.163 -57.509 6.759 -53.5 2.75 C-51.137 2.112 -51.137 2.112 -48.188 1.566 C-47.111 1.361 -46.035 1.155 -44.926 0.943 C-43.795 0.735 -42.665 0.527 -41.5 0.312 C-32.217 -1.404 -32.217 -1.404 -23.125 -3.91 C-13.892 -6.721 -8.334 -4.194 0 0 Z M52.5 59.75 C53.5 62.75 53.5 62.75 53.5 62.75 Z " fill="#080808" transform="translate(274.5,150.25)"/>
<path d="M0 0 C3.688 0.625 3.688 0.625 5.688 2.625 C5.953 4.867 5.953 4.867 5.938 7.5 C5.943 8.364 5.948 9.227 5.953 10.117 C5.676 12.73 5.006 14.375 3.688 16.625 C4.079 16.109 4.471 15.594 4.875 15.062 C6.688 13.625 6.688 13.625 9.188 13.75 C11.955 14.719 13.118 15.146 14.688 17.625 C15.25 20.812 15.25 20.812 14.688 24.625 C13.375 26.437 13.375 26.437 11.75 28.312 C7.673 33.235 7.49 38.401 7.688 44.625 C7.978 46.3 8.297 47.971 8.688 49.625 C7.271 49.679 5.854 49.718 4.438 49.75 C3.649 49.773 2.86 49.796 2.047 49.82 C-0.564 49.604 -2.108 49.022 -4.312 47.625 C-7.702 41.693 -6.366 35.081 -5.312 28.625 C-6.663 31.327 -6.651 33.743 -6.875 36.75 C-6.959 37.846 -7.043 38.941 -7.129 40.07 C-7.189 40.913 -7.25 41.756 -7.312 42.625 C-11.279 42.531 -13.818 41.671 -16.688 39 C-20.467 34.26 -19.857 28.796 -19.719 23.051 C-19.357 20.002 -18.922 18.188 -17.312 15.625 C-16.653 15.625 -15.993 15.625 -15.312 15.625 C-15.312 14.965 -15.312 14.305 -15.312 13.625 C-14.653 13.625 -13.993 13.625 -13.312 13.625 C-13.127 12.965 -12.941 12.305 -12.75 11.625 C-10.121 6.138 -6.654 0.133 0 0 Z M0.688 18.625 C0.358 19.285 0.028 19.945 -0.312 20.625 C0.347 20.625 1.007 20.625 1.688 20.625 C1.358 19.965 1.028 19.305 0.688 18.625 Z M-3.312 23.625 C-2.312 25.625 -2.312 25.625 -2.312 25.625 Z " fill="#131414" transform="translate(220.3125,221.375)"/>
<path d="M0 0 C3.229 1.756 5.064 3.053 7.125 6.145 C7.125 7.135 7.125 8.125 7.125 9.145 C1.07 9.34 1.07 9.34 -0.875 9.145 C-1.535 8.485 -2.195 7.825 -2.875 7.145 C-5.198 6.744 -7.532 6.405 -9.875 6.145 C-9.875 6.805 -9.875 7.465 -9.875 8.145 C-10.535 8.145 -11.195 8.145 -11.875 8.145 C-11.751 9.423 -11.627 10.702 -11.5 12.02 C-11.43 12.739 -11.361 13.458 -11.289 14.199 C-11.011 16.371 -11.011 16.371 -8.875 18.145 C-5.833 18.395 -5.833 18.395 -2.875 18.145 C-2.545 17.815 -2.215 17.485 -1.875 17.145 C-3.525 16.815 -5.175 16.485 -6.875 16.145 C-6.875 14.495 -6.875 12.845 -6.875 11.145 C-1.925 11.145 3.025 11.145 8.125 11.145 C6.958 19.311 6.958 19.311 3.125 23.145 C2.465 23.145 1.805 23.145 1.125 23.145 C1.125 23.805 1.125 24.465 1.125 25.145 C-8.83 26.782 -8.83 26.782 -13.875 24.145 C-17.321 20.792 -19.751 17.762 -20.125 12.895 C-19.848 8.741 -19.177 6.597 -16.875 3.145 C-11.185 -1.242 -6.843 -3.122 0 0 Z " fill="#262726" transform="translate(226.875,299.85546875)"/>
<path d="M0 0 C7 0 7 0 8.742 1.68 C9.116 2.404 9.49 3.129 9.875 3.875 C10.264 4.594 10.654 5.314 11.055 6.055 C11.367 6.697 11.679 7.339 12 8 C12.33 8.66 12.66 9.32 13 10 C13.33 6.7 13.66 3.4 14 0 C16.333 -0.042 18.667 -0.041 21 0 C22.716 1.716 22.13 3.974 22.133 6.312 C22.135 7.925 22.135 7.925 22.137 9.57 C22.133 10.702 22.129 11.834 22.125 13 C22.131 14.698 22.131 14.698 22.137 16.43 C22.135 17.505 22.134 18.58 22.133 19.688 C22.132 20.681 22.131 21.675 22.129 22.699 C22 25 22 25 21 26 C18.667 26.041 16.333 26.042 14 26 C14 25.34 14 24.68 14 24 C13.34 24 12.68 24 12 24 C10.68 21.36 9.36 18.72 8 16 C7.67 19.3 7.34 22.6 7 26 C4.69 26 2.38 26 0 26 C0 17.42 0 8.84 0 0 Z " fill="#262626" transform="translate(247,299)"/>
<path d="M0 0 C2.767 0.969 3.93 1.396 5.5 3.875 C6.062 7.062 6.062 7.062 5.5 10.875 C4.188 12.688 4.188 12.688 2.562 14.562 C-1.514 19.485 -1.697 24.651 -1.5 30.875 C-1.21 32.55 -0.89 34.221 -0.5 35.875 C-1.916 35.929 -3.333 35.968 -4.75 36 C-5.539 36.023 -6.328 36.046 -7.141 36.07 C-9.752 35.854 -11.296 35.272 -13.5 33.875 C-16.878 27.963 -15.723 21.371 -14.203 15.031 C-13.139 11.768 -11.676 9.528 -9.5 6.875 C-8.84 6.875 -8.18 6.875 -7.5 6.875 C-7.232 6.277 -6.964 5.679 -6.688 5.062 C-3.835 -0.192 -3.835 -0.192 0 0 Z " fill="#171817" transform="translate(229.5,235.125)"/>
<path d="M0 0 C0 0.66 0 1.32 0 2 C0.66 2 1.32 2 2 2 C2 3.65 2 5.3 2 7 C-0.31 7 -2.62 7 -5 7 C-5.33 6.01 -5.66 5.02 -6 4 C-7.279 4.103 -8.558 4.206 -9.875 4.312 C-10.594 4.371 -11.314 4.429 -12.055 4.488 C-14.395 4.874 -14.395 4.874 -16 8 C-16.346 10.77 -16.399 12.342 -14.938 14.75 C-12.102 16.579 -9.312 16.688 -6 17 C-6 16.34 -6 15.68 -6 15 C-7.32 14.67 -8.64 14.34 -10 14 C-10 12.35 -10 10.7 -10 9 C-5.38 9 -0.76 9 4 9 C2.792 17.095 2.792 17.095 -0.625 21 C-5.641 23.972 -9.496 24.491 -15.188 23.375 C-18.687 21.664 -20.632 20.112 -23 17 C-24.358 11.386 -24.203 7.455 -22 2 C-16.212 -5.648 -7.376 -4.918 0 0 Z " fill="#212121" transform="translate(295,302)"/>
<path d="M0 0 C2.31 0 4.62 0 7 0 C8.65 3.3 10.3 6.6 12 10 C12.33 6.7 12.66 3.4 13 0 C15.31 0 17.62 0 20 0 C20 8.58 20 17.16 20 26 C13 26 13 26 11.223 24.25 C10.84 23.507 10.457 22.765 10.062 22 C9.662 21.257 9.261 20.515 8.848 19.75 C8.568 19.173 8.288 18.595 8 18 C7.783 19.702 7.783 19.702 7.562 21.438 C7 25 7 25 6 26 C4.02 26 2.04 26 0 26 C0 17.42 0 8.84 0 0 Z " fill="#1F201F" transform="translate(184,299)"/>
<path d="M0 0 C0 0.66 0 1.32 0 2 C0.66 2 1.32 2 2 2 C2 3.98 2 5.96 2 8 C0.02 8 -1.96 8 -4 8 C-4 7.34 -4 6.68 -4 6 C-5.98 6 -7.96 6 -10 6 C-7.302 8.698 -4.651 9.039 -1 10 C2 11 2 11 3.188 12.75 C4.167 15.462 4.419 17.134 4 20 C2.324 22.634 1.077 24.517 -1.812 25.812 C-6.949 26.253 -11.385 26.564 -16 24 C-18.852 21.05 -19 20.289 -19 16 C-16.36 16 -13.72 16 -11 16 C-11 16.99 -11 17.98 -11 19 C-8.69 19 -6.38 19 -4 19 C-4 18.01 -4 17.02 -4 16 C-5.072 15.856 -6.145 15.711 -7.25 15.562 C-9.917 15.163 -12.414 14.724 -15 14 C-15 13.34 -15 12.68 -15 12 C-15.66 12 -16.32 12 -17 12 C-18.405 9.191 -18.249 7.112 -18 4 C-16.578 1.305 -15.377 0.22 -12.75 -1.312 C-8.244 -2.439 -4.336 -1.445 0 0 Z " fill="#242525" transform="translate(392,300)"/>
<path d="M0 0 C2.288 1.864 3.384 3.446 5 6 C5 6.99 5 7.98 5 9 C2.36 9 -0.28 9 -3 9 C-3.33 8.34 -3.66 7.68 -4 7 C-5.895 6.535 -5.895 6.535 -8.062 6.375 C-9.362 6.251 -10.661 6.127 -12 6 C-13.181 9.543 -13.27 12.284 -13 16 C-9.792 18.139 -8.723 18.477 -5 18 C-4.34 17.01 -3.68 16.02 -3 15 C-1.055 14.707 -1.055 14.707 1.125 14.812 C2.404 14.874 3.683 14.936 5 15 C4.713 18.343 3.995 20.007 2 22.75 C-1.953 25.715 -5.108 26.302 -10 26 C-13.929 25.003 -17.565 23.333 -20 20 C-22.614 15.426 -21.888 12.005 -21 7 C-20.67 6.01 -20.34 5.02 -20 4 C-19.34 4 -18.68 4 -18 4 C-18 3.34 -18 2.68 -18 2 C-17.34 2 -16.68 2 -16 2 C-16 1.34 -16 0.68 -16 0 C-10.278 -2.191 -5.729 -2.473 0 0 Z " fill="#262726" transform="translate(126,300)"/>
<path d="M0 0 C2.31 0 4.62 0 7 0 C7 3.3 7 6.6 7 10 C9.31 10 11.62 10 14 10 C14 6.7 14 3.4 14 0 C16.31 0 18.62 0 21 0 C21 8.58 21 17.16 21 26 C18.69 26 16.38 26 14 26 C14 23.03 14 20.06 14 17 C11.69 17 9.38 17 7 17 C7 19.97 7 22.94 7 26 C4.69 26 2.38 26 0 26 C0 17.42 0 8.84 0 0 Z " fill="#141514" transform="translate(133,299)"/>
<path d="M0 0 C1.98 0 3.96 0 6 0 C7.487 3.392 8.963 6.789 10.438 10.188 C10.858 11.147 11.279 12.107 11.713 13.096 C12.116 14.027 12.519 14.958 12.934 15.918 C13.305 16.772 13.677 17.625 14.06 18.505 C14.999 20.997 15.555 23.379 16 26 C13.36 26 10.72 26 8 26 C7.67 24.68 7.34 23.36 7 22 C4.03 22 1.06 22 -2 22 C-2.33 23.32 -2.66 24.64 -3 26 C-5.31 26 -7.62 26 -10 26 C-8.435 16.883 -5.001 7.779 0 0 Z M2 10 C1.67 11.98 1.34 13.96 1 16 C2.32 16 3.64 16 5 16 C4.34 14.02 3.68 12.04 3 10 C2.67 10 2.34 10 2 10 Z " fill="#1E1F1F" transform="translate(166,299)"/>
<path d="M0 0 C5.387 0.599 5.387 0.599 7.812 2.188 C9.591 4.902 9.937 6.743 10 10 C8.898 12.565 7.55 14.652 6 17 C5.34 17 4.68 17 4 17 C3.262 21.324 2.608 25.655 2 30 C-6.003 27.785 -6.003 27.785 -9.062 25.375 C-10.939 20.621 -10.566 15.732 -9 10.938 C-8.505 9.978 -8.505 9.978 -8 9 C-7.34 9 -6.68 9 -6 9 C-5.752 8.216 -5.505 7.433 -5.25 6.625 C-3.846 3.677 -2.993 3.098 0 2 C0 1.34 0 0.68 0 0 Z " fill="#181919" transform="translate(196,220)"/>
<path d="M0 0 C2.181 3.271 2.292 4.614 2.5 8.438 C2.703 12.162 3.102 14.763 5 18 C5.66 18 6.32 18 7 18 C7 18.66 7 19.32 7 20 C7.66 20 8.32 20 9 20 C9.66 21.32 10.32 22.64 11 24 C5.765 25.532 0.394 25.664 -5 25 C-8.507 22.475 -10.359 19.942 -12 16 C-12.57 11.035 -12.651 6.479 -10.625 1.875 C-7.356 -1.897 -4.639 -0.994 0 0 Z " fill="#161716" transform="translate(241,252)"/>
<path d="M0 0 C5.28 0 10.56 0 16 0 C16 2.31 16 4.62 16 7 C13.03 7 10.06 7 7 7 C7 7.99 7 8.98 7 10 C9.64 10 12.28 10 15 10 C15 12.31 15 14.62 15 17 C12.36 17 9.72 17 7 17 C7 17.99 7 18.98 7 20 C9.97 20 12.94 20 16 20 C16 21.98 16 23.96 16 26 C10.72 26 5.44 26 0 26 C0 17.42 0 8.84 0 0 Z " fill="#232323" transform="translate(355,299)"/>
<path d="M0 0 C2.31 0 4.62 0 7 0 C7.349 0.855 7.699 1.709 8.059 2.59 C8.514 3.695 8.969 4.799 9.438 5.938 C10.116 7.591 10.116 7.591 10.809 9.277 C11.744 11.866 11.744 11.866 13 13 C13.349 12.145 13.699 11.291 14.059 10.41 C14.514 9.305 14.969 8.201 15.438 7.062 C15.89 5.96 16.342 4.858 16.809 3.723 C18 1 18 1 19 0 C21 -0.041 23 -0.043 25 0 C25.262 4.047 24.527 6.564 22.75 10.188 C20.273 15.381 18.082 20.638 16 26 C13.69 26 11.38 26 9 26 C6.484 20.577 4.004 15.137 1.688 9.625 C1.198 8.469 1.198 8.469 0.699 7.289 C-0.075 4.754 -0.126 2.636 0 0 Z " fill="#252626" transform="translate(328,299)"/>
<path d="M0 0 C2.64 0 5.28 0 8 0 C8 6.6 8 13.2 8 20 C10.64 20 13.28 20 16 20 C16 21.98 16 23.96 16 26 C10.72 26 5.44 26 0 26 C0 17.42 0 8.84 0 0 Z " fill="#2C2C2C" transform="translate(300,299)"/>
<path d="M0 0 C2.31 0 4.62 0 7 0 C7 8.58 7 17.16 7 26 C4.69 26 2.38 26 0 26 C0 17.42 0 8.84 0 0 Z " fill="#2E2F2E" transform="translate(319,299)"/>
<path d="M0 0 C2.31 0 4.62 0 7 0 C7 8.58 7 17.16 7 26 C4.69 26 2.38 26 0 26 C0 17.42 0 8.84 0 0 Z " fill="#2E2F2F" transform="translate(237,299)"/>
<path d="M0 0 C2.867 0.573 3.861 0.861 6 3 C8.108 2.681 8.108 2.681 10 2 C9.01 2.495 9.01 2.495 8 3 C7.67 3.99 7.34 4.98 7 6 C6.34 6 5.68 6 5 6 C3.286 4.041 1.616 2.041 0 0 Z M8 5 C8.66 5.33 9.32 5.66 10 6 C9.34 6.66 8.68 7.32 8 8 C8 7.01 8 6.02 8 5 Z M10 7 C10.495 7.66 10.99 8.32 11.5 9 C14.748 12.897 18.173 16.661 22 20 C22.66 20 23.32 20 24 20 C24.454 20.804 24.908 21.609 25.375 22.438 C26.734 25.152 26.734 25.152 29.188 25.812 C30.085 25.905 30.085 25.905 31 26 C30.67 26.99 30.34 27.98 30 29 C22.789 25.706 17.485 19.665 12.445 13.699 C10.957 11.904 10.957 11.904 9 10 C9.33 9.01 9.66 8.02 10 7 Z M16 13 C16.66 13 17.32 13 18 13 C17.67 13.66 17.34 14.32 17 15 C16.67 14.34 16.34 13.68 16 13 Z M27 24 C29 25 29 25 29 25 Z " fill="#64BD94" transform="translate(286,201)"/>
<path d="M0 0 C6.368 1.061 9.132 2.751 13 8 C12.67 8.66 12.34 9.32 12 10 C11.469 9.506 10.938 9.013 10.391 8.504 C9.684 7.863 8.978 7.223 8.25 6.562 C7.554 5.924 6.858 5.286 6.141 4.629 C4.012 3.009 2.61 2.417 0 2 C0 1.34 0 0.68 0 0 Z M10 2 C10.99 2.495 10.99 2.495 12 3 C11.67 3.66 11.34 4.32 11 5 C10.67 4.01 10.34 3.02 10 2 Z M17 11 C19.475 11.99 19.475 11.99 22 13 C21.67 13.66 21.34 14.32 21 15 C19.68 13.68 18.36 12.36 17 11 Z M16 13 C19.875 14.75 19.875 14.75 21 17 C17.125 15.25 17.125 15.25 16 13 Z M21 17 C23 18 23 18 23 18 Z " fill="#90C0AA" transform="translate(254,177)"/>
<path d="M0 0 C0.66 0 1.32 0 2 0 C2.095 0.944 2.095 0.944 2.191 1.906 C3.614 11.848 9.358 17.035 17 23 C13.656 23 12.932 22.525 10.312 20.625 C9.69 20.184 9.067 19.743 8.426 19.289 C7.955 18.864 7.485 18.438 7 18 C7 17.34 7 16.68 7 16 C6.381 15.732 5.762 15.464 5.125 15.188 C3 14 3 14 1 11 C0.586 8.301 0.586 8.301 0.375 5.312 C0.3 4.319 0.225 3.325 0.148 2.301 C0.099 1.542 0.05 0.782 0 0 Z " fill="#62CB9A" transform="translate(140,217)"/>
<path d="M0 0 C1.126 0.957 2.251 1.916 3.375 2.875 C4.001 3.409 4.628 3.942 5.273 4.492 C6.558 5.614 7.794 6.794 9 8 C5.925 7.341 3.923 6.461 1 5 C-0.98 7.64 -2.96 10.28 -5 13 C-5.33 12.34 -5.66 11.68 -6 11 C-5.064 8.64 -4.067 6.304 -3 4 C-2.34 4 -1.68 4 -1 4 C-0.67 2.68 -0.34 1.36 0 0 Z " fill="#48C188" transform="translate(154,149)"/>
<path d="M0 0 C3.301 0.268 4.625 0.56 6.812 3.125 C8 6 8 6 7.938 9.625 C7.605 13.073 7.605 13.073 10 14.938 C10.66 15.288 11.32 15.639 12 16 C11.67 16.66 11.34 17.32 11 18 C9.02 17.01 7.04 16.02 5 15 C5.023 14.397 5.046 13.793 5.07 13.172 C5.088 12.373 5.106 11.573 5.125 10.75 C5.148 9.961 5.171 9.172 5.195 8.359 C4.977 5.724 4.43 4.216 3 2 C2.01 1.34 1.02 0.68 0 0 Z " fill="#67CE9E" transform="translate(231,234)"/>
<path d="M0 0 C2.375 0.25 2.375 0.25 5 1 C6.312 3.062 6.312 3.062 7 5 C8.65 4.34 10.3 3.68 12 3 C12 3.66 12 4.32 12 5 C11.34 5 10.68 5 10 5 C10 5.66 10 6.32 10 7 C8.68 7.33 7.36 7.66 6 8 C5.567 7.237 5.134 6.474 4.688 5.688 C3.263 3.419 1.967 1.78 0 0 Z " fill="#5EC696" transform="translate(201,219)"/>
<path d="M0 0 C1.32 0.33 2.64 0.66 4 1 C4 1.66 4 2.32 4 3 C4.763 3.268 5.526 3.536 6.312 3.812 C8.874 4.944 10.197 5.912 12 8 C10.68 8 9.36 8 8 8 C8 7.34 8 6.68 8 6 C7.237 5.752 6.474 5.505 5.688 5.25 C2.764 3.89 1.7 2.684 0 0 Z M-1 2 C-0.34 2 0.32 2 1 2 C0.67 2.66 0.34 3.32 0 4 C-0.33 3.34 -0.66 2.68 -1 2 Z M1 4 C3 5 3 5 3 5 Z " fill="#5FCA99" transform="translate(298,233)"/>
<path d="M0 0 C-0.783 3.916 -2.392 7.364 -4 11 C-5.033 8.212 -5.045 7.132 -4.062 4.25 C-3.712 3.507 -3.361 2.765 -3 2 C-3.66 1.67 -4.32 1.34 -5 1 C-3 0 -3 0 0 0 Z " fill="#5CBA8E" transform="translate(215,159)"/>
<path d="M0 0 C3.961 1.743 7.744 4.147 11 7 C11 7.66 11 8.32 11 9 C8.035 7.642 5.709 6.076 3.25 3.938 C2.636 3.41 2.023 2.883 1.391 2.34 C0.932 1.898 0.473 1.456 0 1 C0 0.67 0 0.34 0 0 Z " fill="#5EC997" transform="translate(278,242)"/>
<path d="M0 0 C0.33 0 0.66 0 1 0 C1 2.31 1 4.62 1 7 C1.66 7 2.32 7 3 7 C6 11.385 6 11.385 6 14 C5.34 14 4.68 14 4 14 C4 13.34 4 12.68 4 12 C3.34 12 2.68 12 2 12 C-0.136 8.796 -0.231 7.981 -0.125 4.312 C-0.107 3.504 -0.089 2.696 -0.07 1.863 C-0.047 1.248 -0.024 0.634 0 0 Z " fill="#67D1A0" transform="translate(244,255)"/>
<path d="M0 0 C0.33 0.66 0.66 1.32 1 2 C-0.072 2.268 -1.145 2.536 -2.25 2.812 C-5.565 3.862 -7.439 4.746 -10 7 C-9.632 4.332 -9.18 3.18 -7.25 1.25 C-4.621 -0.211 -2.963 -0.247 0 0 Z " fill="#4EC38D" transform="translate(200,217)"/>
<path d="M0 0 C0.99 0.33 1.98 0.66 3 1 C0.69 3.64 -1.62 6.28 -4 9 C-4.99 8.67 -5.98 8.34 -7 8 C-4.69 5.36 -2.38 2.72 0 0 Z " fill="#5FCD9A" transform="translate(237,176)"/>
<path d="M0 0 C3.306 0.551 6.2 1.1 9 3 C9.75 5.125 9.75 5.125 10 7 C9.092 6.361 8.185 5.721 7.25 5.062 C4.608 3.386 3.01 2.463 0 2 C0 1.34 0 0.68 0 0 Z " fill="#57C994" transform="translate(254,177)"/>
<path d="M0 0 C1.378 2.756 0.92 4.098 0 7 C-2.062 8.812 -2.062 8.812 -4 10 C-4.33 9.01 -4.66 8.02 -5 7 C-4.004 5.176 -4.004 5.176 -2.562 3.312 C-2.089 2.69 -1.616 2.067 -1.129 1.426 C-0.756 0.955 -0.384 0.485 0 0 Z " fill="#79D0A8" transform="translate(208,172)"/>
<path d="M0 0 C0 3 0 3 0 3 Z M2 2 C4 3 4 3 4 3 Z M4 3 C4.66 3.66 5.32 4.32 6 5 C5.34 5.66 4.68 6.32 4 7 C3.34 6.01 2.68 5.02 2 4 C2.66 3.67 3.32 3.34 4 3 Z " fill="#83BDA2" transform="translate(311,223)"/>
<path d="M0 0 C-0.99 0.33 -1.98 0.66 -3 1 C-3.33 1.99 -3.66 2.98 -4 4 C-4 3.34 -4 2.68 -4 2 C-4.66 2 -5.32 2 -6 2 C-6 1.34 -6 0.68 -6 0 C-3.509 -1.245 -2.589 -0.777 0 0 Z " fill="#4C4E4D" transform="translate(300,204)"/>
<path d="M0 0 C0.66 0 1.32 0 2 0 C2.99 1.98 3.98 3.96 5 6 C3.062 5.25 3.062 5.25 1 4 C0.25 1.875 0.25 1.875 0 0 Z " fill="#4DC28B" transform="translate(203,183)"/>
<path d="M0 0 C0.66 0.33 1.32 0.66 2 1 C0.625 2.5 0.625 2.5 -1 4 C-1.66 4 -2.32 4 -3 4 C-2.67 3.01 -2.34 2.02 -2 1 C-1.34 0.67 -0.68 0.34 0 0 Z " fill="#4F5150" transform="translate(234,251)"/>
<path d="M0 0 C0.66 0 1.32 0 2 0 C2.33 0.99 2.66 1.98 3 3 C2.01 3 1.02 3 0 3 C0 2.01 0 1.02 0 0 Z " fill="#79D2A9" transform="translate(141,225)"/>
<path d="M0 0 C0.66 0.66 1.32 1.32 2 2 C0.515 2.99 0.515 2.99 -1 4 C-0.67 2.68 -0.34 1.36 0 0 Z " fill="#66D2A0" transform="translate(154,149)"/>
</svg>